<?xml version="1.0" encoding="UTF-8" ?>
<!DOCTYPE svg PUBLIC "-//W3C//DTD SVG 1.1//EN" "http://www.w3.org/Graphics/SVG/1.1/DTD/svg11.dtd">
<svg width="722pt" height="146pt" viewBox="0 0 722 146" version="1.1" xmlns="http://www.w3.org/2000/svg">
<g id="#faf8f7ff">
<path fill="#faf8f7" opacity="1.00" d=" M 3.22 3.23 C 3.82 3.75 3.82 3.75 3.22 3.23 Z" />
<path fill="#faf8f7" opacity="1.00" d=" M 22.83 14.15 C 39.73 14.12 56.63 14.19 73.53 14.11 C 73.62 17.04 73.63 19.97 73.55 22.90 C 59.99 22.86 46.43 22.90 32.86 22.88 C 32.89 29.74 32.86 36.59 32.88 43.44 C 44.49 43.77 56.12 42.98 67.71 43.52 C 56.11 43.98 44.48 43.31 32.86 43.52 L 32.83 45.31 C 44.64 45.47 56.46 45.07 68.25 45.52 C 68.20 48.42 68.18 51.32 68.11 54.22 C 56.38 54.23 44.65 54.26 32.93 54.21 C 32.82 65.27 32.87 76.34 32.90 87.41 C 29.53 87.49 26.15 87.49 22.78 87.44 C 22.79 63.01 22.69 38.58 22.83 14.15 Z" />
<path fill="#faf8f7" opacity="1.00" d=" M 179.91 14.20 C 189.94 14.11 199.97 14.11 209.99 14.19 C 216.98 14.20 224.30 15.68 229.83 20.19 C 237.99 26.60 241.50 37.22 241.93 47.28 C 242.58 58.89 239.91 71.79 231.04 79.99 C 225.21 85.58 216.83 87.11 209.04 87.42 C 199.42 87.58 189.80 87.36 180.18 87.53 C 180.00 85.69 179.85 83.85 179.86 82.00 C 179.93 59.40 179.83 36.80 179.91 14.20 M 190.16 22.93 C 190.22 41.44 190.29 59.95 190.12 78.45 C 197.09 78.44 204.07 78.64 211.04 78.32 C 216.93 78.01 223.31 75.85 226.57 70.60 C 231.94 62.47 232.01 52.21 231.14 42.85 C 230.23 34.73 225.29 26.31 217.04 24.01 C 208.20 22.20 199.12 23.05 190.16 22.93 Z" />
<path fill="#faf8f7" opacity="1.00" d=" M 349.22 14.16 C 359.81 14.15 370.40 14.11 380.99 14.17 C 387.44 14.23 394.50 15.05 399.57 19.46 C 409.33 28.04 408.40 45.35 398.04 53.07 C 393.40 56.30 387.61 57.28 382.08 57.63 C 374.46 57.84 366.84 57.61 359.22 57.76 C 359.34 67.63 359.23 77.51 359.28 87.38 C 355.99 87.47 352.71 87.46 349.43 87.56 C 348.46 84.78 349.23 81.88 349.22 79.03 C 349.22 57.40 349.16 35.78 349.22 14.16 M 359.24 22.94 C 359.29 31.57 359.28 40.20 359.25 48.83 C 367.45 48.58 375.69 49.19 383.87 48.46 C 388.84 48.11 394.04 45.21 395.39 40.13 C 396.07 35.72 396.34 30.49 393.00 27.01 C 389.88 23.15 384.56 23.07 380.03 22.89 C 373.10 22.88 366.17 22.84 359.24 22.94 Z" />
<path fill="#faf8f7" opacity="1.00" d=" M 510.48 14.23 C 521.01 14.06 531.54 14.16 542.07 14.17 C 548.76 14.19 556.14 14.97 561.31 19.68 C 571.90 29.19 569.34 49.51 555.92 55.10 C 544.65 59.41 532.35 57.14 520.59 57.71 C 520.67 67.63 520.64 77.54 520.61 87.46 C 517.24 87.47 513.88 87.47 510.52 87.43 C 510.48 63.03 510.55 38.63 510.48 14.23 M 520.62 22.88 C 520.66 31.53 520.60 40.19 520.65 48.84 C 530.12 48.30 539.81 49.85 549.12 47.67 C 558.57 45.44 560.24 31.42 553.09 25.74 C 550.06 23.03 545.74 23.17 541.94 22.90 C 534.83 22.84 527.72 22.91 520.62 22.88 Z" />
<path fill="#faf8f7" opacity="1.00" d=" M 288.43 110.61 C 289.76 110.78 291.11 110.97 292.45 111.16 C 292.27 114.13 292.89 118.07 289.83 119.84 C 286.53 120.38 289.97 117.06 290.12 115.48 C 287.52 115.01 288.47 112.45 288.43 110.61 Z" />
<path fill="#faf8f7" opacity="1.00" d=" M 23.74 111.19 C 30.28 111.18 36.82 111.03 43.35 111.29 C 43.34 112.41 43.33 113.52 43.32 114.64 C 38.12 114.88 32.92 114.75 27.72 114.73 C 27.74 117.61 27.74 120.48 27.72 123.36 C 32.27 123.33 36.83 123.12 41.37 123.53 C 41.32 124.35 41.23 125.99 41.18 126.81 C 36.70 126.92 32.22 126.89 27.74 126.86 C 27.75 131.17 27.75 135.48 27.73 139.79 C 26.42 139.80 25.11 139.82 23.80 139.84 C 23.60 130.30 23.71 120.74 23.74 111.19 Z" />
<path fill="#faf8f7" opacity="1.00" d=" M 61.92 111.11 C 63.30 111.13 64.68 111.19 66.06 111.31 C 70.26 120.66 73.75 130.33 77.84 139.73 C 76.32 139.76 74.80 139.78 73.28 139.80 C 72.20 136.93 71.07 134.08 69.93 131.24 C 65.99 131.30 62.06 131.29 58.13 131.30 C 57.13 134.06 56.10 136.81 55.29 139.63 C 53.84 139.71 52.39 139.77 50.94 139.83 C 54.51 130.22 58.30 120.70 61.92 111.11 M 63.91 114.97 C 62.65 119.42 60.77 123.65 59.34 128.04 C 62.45 127.81 65.57 127.81 68.67 128.04 C 67.19 123.65 65.60 119.29 63.91 114.97 Z" />
<path fill="#faf8f7" opacity="1.00" d=" M 88.17 111.19 C 95.00 111.15 101.83 111.12 108.67 111.21 C 108.65 112.38 108.64 113.54 108.63 114.71 C 102.75 121.87 96.97 129.10 91.09 136.26 C 97.00 136.36 102.92 136.03 108.82 136.41 C 109.60 137.32 109.83 140.07 107.92 139.76 C 100.74 139.92 93.55 139.84 86.36 139.76 C 86.38 138.62 86.39 137.48 86.40 136.35 C 92.22 129.13 97.87 121.77 103.93 114.75 C 98.69 114.77 93.45 114.77 88.22 114.77 C 88.20 113.57 88.18 112.38 88.17 111.19 Z" />
<path fill="#faf8f7" opacity="1.00" d=" M 129.15 111.19 C 130.57 111.21 131.99 111.23 133.41 111.27 C 137.21 120.77 141.16 130.20 144.91 139.72 C 143.44 139.76 141.96 139.80 140.49 139.83 C 139.42 136.95 138.31 134.08 137.16 131.24 C 133.09 131.40 128.99 131.00 124.95 131.58 C 124.28 134.37 123.33 137.08 122.33 139.76 C 120.92 139.76 119.51 139.76 118.11 139.75 C 121.86 130.26 125.42 120.69 129.15 111.19 M 126.37 127.78 C 129.56 127.89 132.75 127.89 135.95 127.86 C 134.38 123.57 132.66 119.35 131.33 114.98 C 129.59 119.22 128.32 123.63 126.37 127.78 Z" />
<path fill="#faf8f7" opacity="1.00" d=" M 155.56 111.41 C 156.91 111.31 158.27 111.22 159.62 111.13 C 159.64 119.51 159.63 127.89 159.63 136.26 C 164.29 136.25 168.96 136.23 173.62 136.30 C 173.62 137.46 173.63 138.62 173.64 139.78 C 167.67 139.87 161.71 139.82 155.75 139.81 C 155.54 130.35 155.87 120.88 155.56 111.41 Z" />
<path fill="#faf8f7" opacity="1.00" d=" M 195.93 111.20 C 200.82 111.25 205.76 110.84 210.62 111.54 C 216.63 112.76 219.81 119.30 219.54 125.02 C 219.86 130.85 217.15 137.79 210.96 139.34 C 205.97 140.25 200.85 139.77 195.82 139.70 C 195.96 130.20 195.75 120.70 195.93 111.20 M 199.66 114.74 C 199.66 121.91 199.69 129.07 199.64 136.24 C 204.59 136.03 211.68 137.74 214.26 132.09 C 216.02 127.56 216.28 121.72 213.45 117.56 C 210.11 113.41 204.25 115.10 199.66 114.74 Z" />
<path fill="#faf8f7" opacity="1.00" d=" M 233.35 111.12 C 234.71 111.21 236.07 111.31 237.44 111.42 C 237.29 120.81 237.29 130.19 237.44 139.57 C 236.06 139.67 234.69 139.76 233.32 139.84 C 233.36 130.27 233.31 120.69 233.35 111.12 Z" />
<path fill="#faf8f7" opacity="1.00" d=" M 252.03 111.11 C 253.58 111.42 255.85 110.56 256.69 112.38 C 261.44 119.16 265.65 126.32 270.69 132.88 C 270.98 125.67 270.63 118.46 270.90 111.25 C 271.79 111.22 273.58 111.16 274.48 111.12 C 274.74 120.63 274.37 130.14 274.68 139.64 C 273.21 139.44 271.07 140.61 270.15 139.02 C 265.22 132.08 260.89 124.70 255.70 117.96 C 255.52 125.22 255.63 132.49 255.64 139.76 C 254.45 139.78 253.25 139.80 252.07 139.82 C 251.65 130.27 251.72 120.67 252.03 111.11 Z" />
<path fill="#faf8f7" opacity="1.00" d=" M 306.67 122.01 C 303.95 117.73 307.37 112.09 311.98 111.11 C 318.04 109.09 326.29 112.31 326.63 119.44 C 325.68 119.47 323.77 119.52 322.82 119.54 C 322.63 115.54 318.43 113.73 314.90 114.35 C 311.76 113.97 308.14 116.86 309.74 120.19 C 314.26 123.82 321.10 122.45 325.33 126.68 C 328.15 129.21 327.98 133.92 325.48 136.62 C 321.98 140.89 315.59 141.05 310.74 139.33 C 307.04 137.93 304.91 134.19 304.42 130.41 C 305.35 130.38 307.21 130.31 308.14 130.28 C 308.72 136.54 316.81 138.03 321.50 135.51 C 324.01 134.46 324.40 130.29 321.99 128.96 C 317.13 126.17 310.08 127.16 306.67 122.01 Z" />
<path fill="#faf8f7" opacity="1.00" d=" M 386.52 111.09 C 387.79 111.16 389.07 111.23 390.35 111.31 C 390.29 115.17 390.21 119.03 390.47 122.88 C 395.42 122.58 400.39 123.07 405.33 122.51 C 405.18 118.74 405.21 114.97 405.22 111.20 C 406.41 111.19 407.61 111.18 408.81 111.17 C 408.56 120.73 409.49 130.28 408.75 139.82 C 407.57 139.81 406.40 139.81 405.23 139.81 C 405.11 135.35 405.54 130.87 404.88 126.45 C 400.03 126.56 395.18 126.51 390.34 126.49 C 390.30 130.90 390.28 135.31 390.35 139.71 C 389.38 139.74 387.42 139.79 386.44 139.81 C 386.51 130.24 386.37 120.66 386.52 111.09 Z" />
<path fill="#faf8f7" opacity="1.00" d=" M 431.13 111.26 C 432.52 111.24 433.92 111.22 435.33 111.22 C 439.18 120.74 443.06 130.26 446.95 139.76 C 445.44 139.76 443.93 139.75 442.44 139.73 C 441.40 136.92 440.35 134.11 439.29 131.32 C 435.28 131.27 431.28 131.27 427.27 131.31 C 426.20 134.11 425.49 137.07 424.08 139.73 C 422.77 139.78 421.46 139.79 420.16 139.75 C 423.82 130.26 427.50 120.77 431.13 111.26 M 432.92 115.00 C 431.74 119.36 430.22 123.62 428.34 127.72 C 431.56 127.89 434.78 127.93 438.01 127.85 C 436.32 123.56 434.91 119.16 432.92 115.00 Z" />
<path fill="#faf8f7" opacity="1.00" d=" M 458.31 111.18 C 463.95 111.33 469.65 110.74 475.24 111.55 C 480.75 112.51 482.64 120.08 479.12 124.02 C 477.74 125.76 475.49 126.29 473.51 127.01 C 477.93 130.20 480.24 135.34 483.12 139.81 C 481.55 139.74 479.92 139.98 478.40 139.54 C 475.74 136.16 474.00 132.12 471.05 128.95 C 468.78 126.47 465.04 127.60 462.08 127.27 C 461.62 131.44 461.86 135.64 461.79 139.83 C 460.60 139.81 459.41 139.79 458.24 139.78 C 458.27 130.24 457.30 120.69 458.31 111.18 M 461.75 114.62 C 461.82 117.63 461.83 120.63 461.76 123.63 C 465.61 123.69 469.49 123.97 473.33 123.45 C 477.62 123.12 478.14 115.91 473.98 114.93 C 469.95 114.19 465.81 114.71 461.75 114.62 Z" />
<path fill="#faf8f7" opacity="1.00" d=" M 494.61 111.31 C 496.59 111.23 498.58 111.18 500.58 111.16 C 503.30 119.14 505.65 127.27 508.81 135.09 C 511.31 127.07 514.30 119.22 516.93 111.25 C 518.55 111.20 520.17 111.16 521.80 111.12 C 521.99 120.67 521.79 130.23 521.85 139.78 C 521.00 139.81 519.29 139.86 518.44 139.89 C 518.11 132.24 518.59 124.58 518.21 116.94 C 515.31 124.04 513.12 131.41 510.45 138.60 C 510.19 140.42 508.16 139.71 506.90 139.81 C 504.13 133.54 502.26 126.84 500.21 120.30 C 499.77 120.30 498.88 120.31 498.43 120.31 C 498.73 126.80 498.51 133.30 498.58 139.80 C 497.25 139.76 495.93 139.71 494.62 139.66 C 494.67 130.21 494.67 120.76 494.61 111.31 Z" />
<path fill="#faf8f7" opacity="1.00" d=" M 543.79 111.42 C 545.30 111.32 546.82 111.26 548.35 111.22 C 552.07 120.80 556.03 130.28 559.91 139.80 C 558.37 139.78 556.85 139.75 555.33 139.71 C 554.28 136.92 553.21 134.13 552.22 131.32 C 548.23 131.25 544.24 131.28 540.26 131.28 C 539.20 134.06 538.20 136.86 537.32 139.70 C 535.90 139.73 534.49 139.75 533.09 139.77 C 536.56 130.29 540.54 120.98 543.79 111.42 M 545.88 114.96 C 544.66 119.32 543.18 123.60 541.29 127.72 C 544.48 127.89 547.69 127.93 550.89 127.91 C 549.22 123.60 547.79 119.18 545.88 114.96 Z" />
<path fill="#faf8f7" opacity="1.00" d=" M 614.29 111.24 C 615.55 111.21 616.82 111.17 618.10 111.15 C 618.24 119.50 618.35 127.87 618.03 136.23 C 622.79 136.28 627.54 136.20 632.29 136.34 C 632.30 137.46 632.31 138.58 632.33 139.71 C 626.32 139.93 620.31 139.84 614.30 139.77 C 614.30 130.26 614.32 120.75 614.29 111.24 Z" />
<path fill="#faf8f7" opacity="1.00" d=" M 644.78 111.21 C 646.10 111.20 647.42 111.20 648.75 111.20 C 648.90 117.84 648.53 124.49 648.93 131.11 C 649.32 138.72 663.14 138.66 663.29 131.00 C 663.63 124.43 663.37 117.84 663.40 111.26 C 664.76 111.23 666.10 111.20 667.49 111.18 C 667.41 117.45 667.61 123.73 667.40 130.00 C 667.32 133.90 665.37 137.99 661.53 139.40 C 656.97 141.00 651.16 140.82 647.51 137.31 C 645.09 134.87 644.93 131.19 644.74 127.96 C 644.69 122.38 644.69 116.79 644.78 111.21 Z" />
<path fill="#faf8f7" opacity="1.00" d=" M 683.02 114.06 C 688.53 107.71 701.78 110.14 702.55 119.34 C 701.60 119.43 699.69 119.61 698.74 119.70 C 697.95 117.84 697.38 115.42 695.19 114.77 C 692.82 114.10 690.24 114.17 687.87 114.78 C 684.82 115.49 684.20 120.83 687.54 121.53 C 692.03 123.39 697.63 123.07 701.21 126.79 C 704.03 129.49 703.59 134.39 700.97 137.08 C 694.62 143.48 680.46 140.43 680.18 130.36 C 681.47 130.34 682.77 130.32 684.08 130.31 C 684.49 136.77 692.91 138.11 697.52 135.34 C 700.01 133.98 700.02 129.79 697.32 128.67 C 693.05 126.68 687.97 126.76 684.05 123.97 C 680.99 121.69 680.52 116.94 683.02 114.06 Z" />
<path fill="#faf8f7" opacity="1.00" d=" M 351.65 111.27 C 357.07 111.27 362.59 110.67 367.95 111.70 C 374.54 113.39 375.38 123.47 369.74 126.81 C 365.41 129.20 360.20 128.17 355.47 128.40 C 355.57 132.23 355.61 136.05 355.44 139.87 C 354.51 139.84 352.65 139.78 351.72 139.75 C 351.61 130.26 351.73 120.76 351.65 111.27 M 355.45 114.73 C 355.57 118.03 355.57 121.33 355.47 124.62 C 359.14 124.59 362.88 124.97 366.50 124.23 C 370.77 123.01 370.45 115.76 366.04 114.92 C 362.53 114.54 358.98 114.86 355.45 114.73 Z" />
<path fill="#faf8f7" opacity="1.00" d=" M 579.61 111.27 C 585.05 111.26 590.57 110.73 595.97 111.64 C 602.91 113.37 603.50 124.22 597.25 127.22 C 592.92 128.99 588.14 128.23 583.59 128.43 C 583.68 132.25 583.67 136.06 583.66 139.88 C 582.27 139.78 580.89 139.68 579.52 139.56 C 579.73 130.13 579.57 120.70 579.61 111.27 M 583.61 124.65 C 587.25 124.58 590.94 124.97 594.54 124.24 C 597.42 123.39 598.02 120.05 597.28 117.51 C 594.45 112.78 588.10 115.45 583.64 114.76 C 583.67 118.05 583.67 121.35 583.61 124.65 Z" />
</g>
<g id="#29166fff">
<path fill="#29166f" opacity="1.00" d=" M 1.71 3.89 C 1.50 2.28 2.22 1.56 3.86 1.73 C 153.25 1.77 302.65 1.98 452.02 1.85 C 496.36 1.79 540.66 2.21 585.00 2.11 C 588.21 2.11 591.38 3.19 594.59 2.52 C 594.59 2.72 594.59 3.10 594.58 3.30 C 592.61 3.25 590.63 3.26 588.66 3.29 C 588.70 34.13 588.63 64.96 588.70 95.80 C 395.81 95.69 202.92 95.79 10.03 95.75 C 7.25 95.74 4.47 95.77 1.69 95.85 C 1.71 65.20 1.71 34.54 1.71 3.89 M 3.22 3.23 C 3.82 3.75 3.82 3.75 3.22 3.23 M 22.83 14.15 C 22.69 38.58 22.79 63.01 22.78 87.44 C 26.15 87.49 29.53 87.49 32.90 87.41 C 32.87 76.34 32.82 65.27 32.93 54.21 C 44.65 54.26 56.38 54.23 68.11 54.22 C 68.18 51.32 68.20 48.42 68.25 45.52 C 56.46 45.07 44.64 45.47 32.83 45.31 L 32.86 43.52 C 44.48 43.31 56.11 43.98 67.71 43.52 C 56.12 42.98 44.49 43.77 32.88 43.44 C 32.86 36.59 32.89 29.74 32.86 22.88 C 46.43 22.90 59.99 22.86 73.55 22.90 C 73.63 19.97 73.62 17.04 73.53 14.11 C 56.63 14.19 39.73 14.12 22.83 14.15 M 179.91 14.20 C 179.83 36.80 179.93 59.40 179.86 82.00 C 179.85 83.85 180.00 85.69 180.18 87.53 C 189.80 87.36 199.42 87.58 209.04 87.42 C 216.83 87.11 225.21 85.58 231.04 79.99 C 239.91 71.79 242.58 58.89 241.93 47.28 C 241.50 37.22 237.99 26.60 229.83 20.19 C 224.30 15.68 216.98 14.20 209.99 14.19 C 199.97 14.11 189.94 14.11 179.91 14.20 M 349.22 14.16 C 349.16 35.78 349.22 57.40 349.22 79.03 C 349.23 81.88 348.46 84.78 349.43 87.56 C 352.71 87.46 355.99 87.47 359.28 87.38 C 359.23 77.51 359.34 67.63 359.22 57.76 C 366.84 57.61 374.46 57.84 382.08 57.63 C 387.61 57.28 393.40 56.30 398.04 53.07 C 408.40 45.35 409.33 28.04 399.57 19.46 C 394.50 15.05 387.44 14.23 380.99 14.17 C 370.40 14.11 359.81 14.15 349.22 14.16 M 510.48 14.23 C 510.55 38.63 510.48 63.03 510.52 87.43 C 513.88 87.47 517.24 87.47 520.61 87.46 C 520.64 77.54 520.67 67.63 520.59 57.71 C 532.35 57.14 544.65 59.41 555.92 55.10 C 569.34 49.51 571.90 29.19 561.31 19.68 C 556.14 14.97 548.76 14.19 542.07 14.17 C 531.54 14.16 521.01 14.06 510.48 14.23 Z" />
<path fill="#29166f" opacity="1.00" d=" M 190.16 22.93 C 199.12 23.05 208.20 22.20 217.04 24.01 C 225.29 26.31 230.23 34.73 231.14 42.85 C 232.01 52.21 231.94 62.47 226.57 70.60 C 223.31 75.85 216.93 78.01 211.04 78.32 C 204.07 78.64 197.09 78.44 190.12 78.45 C 190.29 59.95 190.22 41.44 190.16 22.93 Z" />
<path fill="#29166f" opacity="1.00" d=" M 359.24 22.94 C 366.17 22.84 373.10 22.88 380.03 22.89 C 384.56 23.07 389.88 23.15 393.00 27.01 C 396.34 30.49 396.07 35.72 395.39 40.13 C 394.04 45.21 388.84 48.11 383.87 48.46 C 375.69 49.19 367.45 48.58 359.25 48.83 C 359.28 40.20 359.29 31.57 359.24 22.94 Z" />
<path fill="#29166f" opacity="1.00" d=" M 520.62 22.88 C 527.72 22.91 534.83 22.84 541.94 22.90 C 545.74 23.17 550.06 23.03 553.09 25.74 C 560.24 31.42 558.57 45.44 549.12 47.67 C 539.81 49.85 530.12 48.30 520.65 48.84 C 520.60 40.19 520.66 31.53 520.62 22.88 Z" />
<path fill="#29166f" opacity="1.00" d=" M 610.62 75.22 C 612.51 75.24 614.40 75.30 616.30 75.42 C 616.21 77.25 616.13 79.07 616.07 80.90 C 618.03 80.91 620.00 80.92 621.97 80.92 C 621.90 79.08 621.85 77.26 621.78 75.43 C 623.67 75.30 625.57 75.22 627.48 75.18 C 627.39 80.74 627.38 86.30 627.48 91.85 C 625.70 91.85 623.91 91.84 622.14 91.82 C 622.17 89.65 622.21 87.48 622.27 85.31 C 620.15 85.19 618.03 85.14 615.92 85.14 C 615.83 87.36 615.79 89.58 615.80 91.81 C 614.11 91.87 612.42 91.94 610.74 92.02 C 610.59 86.42 610.75 80.82 610.62 75.22 Z" />
<path fill="#29166f" opacity="1.00" d=" M 635.41 75.62 C 638.04 74.60 641.00 74.56 643.67 75.50 C 650.40 77.62 650.59 88.85 644.11 91.42 C 641.17 92.63 637.75 92.45 634.85 91.23 C 628.86 88.39 629.07 77.92 635.41 75.62 M 640.97 88.38 C 644.38 86.89 643.84 82.30 642.56 79.48 C 641.11 79.07 639.52 78.06 638.05 78.94 C 633.92 81.22 635.62 89.92 640.97 88.38 Z" />
<path fill="#29166f" opacity="1.00" d=" M 663.46 75.24 C 665.18 75.23 666.91 75.21 668.64 75.18 C 668.56 79.01 668.78 82.85 668.51 86.67 C 668.34 90.32 664.36 92.38 661.05 92.23 C 657.77 92.47 653.65 91.50 652.47 88.01 C 651.29 83.87 652.03 79.51 651.83 75.27 C 653.64 75.25 655.46 75.24 657.29 75.23 C 657.35 79.04 656.98 82.89 657.44 86.69 C 658.34 89.39 663.22 89.00 663.41 85.99 C 663.70 82.41 663.46 78.82 663.46 75.24 Z" />
<path fill="#29166f" opacity="1.00" d=" M 691.67 80.97 C 690.49 75.74 697.13 74.07 701.02 74.99 C 703.76 75.07 705.58 77.27 706.40 79.67 C 704.74 79.76 703.09 79.84 701.45 79.88 C 700.28 77.59 697.56 77.30 695.72 79.04 C 698.62 81.82 703.59 80.65 706.06 84.03 C 707.50 86.39 706.49 89.80 704.02 91.05 C 699.37 93.45 691.94 92.60 690.47 86.74 C 692.14 86.53 693.83 86.36 695.53 86.22 C 696.20 89.08 701.07 90.33 701.79 86.96 C 699.37 83.72 693.13 85.39 691.67 80.97 Z" />
<path fill="#29166f" opacity="1.00" d=" M 672.61 75.20 C 677.31 75.56 682.31 74.45 686.80 76.14 C 689.84 78.60 688.29 83.10 685.05 84.52 C 687.00 86.73 688.63 89.21 689.69 91.98 C 687.75 91.93 685.84 91.91 683.92 91.93 C 682.57 89.65 681.24 87.36 679.81 85.13 C 679.29 85.19 678.26 85.30 677.74 85.36 C 677.78 87.50 677.80 89.64 677.84 91.78 C 676.10 91.85 674.39 91.93 672.67 92.04 C 672.60 86.43 672.68 80.81 672.61 75.20 M 677.68 78.47 C 677.70 79.57 677.74 80.67 677.78 81.77 C 679.45 81.80 681.12 81.81 682.81 81.80 C 682.76 80.66 682.70 79.52 682.63 78.39 C 680.97 78.40 679.32 78.43 677.68 78.47 Z" />
</g>
<g id="#f9c42dff">
<path fill="#f9c42d" opacity="1.00" d=" M 594.59 2.52 C 600.68 1.29 606.86 2.27 613.00 2.08 C 619.00 1.43 625.00 2.54 631.00 1.87 C 659.35 1.72 687.71 1.84 716.06 1.74 C 717.57 1.76 719.08 1.95 720.60 2.14 C 721.20 7.40 720.94 12.69 720.98 17.96 C 721.01 43.94 720.95 69.92 721.00 95.89 C 678.86 95.85 636.72 95.84 594.58 95.90 C 594.54 65.03 594.52 34.16 594.58 3.30 C 594.59 3.10 594.59 2.72 594.59 2.52 M 619.73 14.73 C 615.62 17.42 613.92 22.38 613.15 27.00 C 617.14 27.40 621.17 27.52 625.16 28.08 C 625.94 25.51 626.45 22.52 628.88 20.92 C 633.00 18.17 640.07 18.81 642.29 23.72 C 643.69 27.51 642.07 31.63 639.32 34.36 C 632.12 41.53 623.11 46.80 616.72 54.80 C 614.03 58.10 612.55 62.15 611.64 66.26 C 626.17 66.40 640.71 66.27 655.24 66.34 C 655.23 63.10 655.23 59.86 655.25 56.63 C 647.13 56.61 639.01 56.64 630.89 56.62 C 634.44 50.98 640.71 47.88 645.47 43.38 C 651.05 38.61 656.16 31.70 655.05 23.96 C 654.18 17.62 648.56 13.02 642.60 11.60 C 634.98 9.83 626.41 10.38 619.73 14.73 M 689.20 10.82 C 680.40 22.50 670.92 33.67 662.05 45.29 C 660.88 48.38 661.77 51.94 661.55 55.22 C 670.31 55.26 679.08 55.21 687.84 55.24 C 687.85 58.92 687.85 62.60 687.84 66.29 C 691.84 66.33 695.84 66.37 699.85 66.27 C 699.73 62.63 699.72 59.00 699.75 55.36 C 702.44 55.25 705.14 55.21 707.85 55.23 C 707.78 52.15 707.77 49.06 707.82 45.98 C 705.17 45.86 702.52 45.81 699.87 45.80 C 699.64 34.14 699.70 22.46 699.85 10.79 C 696.30 10.62 692.74 10.63 689.20 10.82 M 610.62 75.22 C 610.75 80.82 610.59 86.42 610.74 92.02 C 612.42 91.94 614.11 91.87 615.80 91.81 C 615.79 89.58 615.83 87.36 615.92 85.14 C 618.03 85.14 620.15 85.19 622.27 85.31 C 622.21 87.48 622.17 89.65 622.14 91.82 C 623.91 91.84 625.70 91.85 627.48 91.85 C 627.38 86.30 627.39 80.74 627.48 75.18 C 625.57 75.22 623.67 75.30 621.78 75.43 C 621.85 77.26 621.90 79.08 621.97 80.92 C 620.00 80.92 618.03 80.91 616.07 80.90 C 616.13 79.07 616.21 77.25 616.30 75.42 C 614.40 75.30 612.51 75.24 610.62 75.22 M 635.41 75.62 C 629.07 77.92 628.86 88.39 634.85 91.23 C 637.75 92.45 641.17 92.63 644.11 91.42 C 650.59 88.85 650.40 77.62 643.67 75.50 C 641.00 74.56 638.04 74.60 635.41 75.62 M 663.46 75.24 C 663.46 78.82 663.70 82.41 663.41 85.99 C 663.22 89.00 658.34 89.39 657.44 86.69 C 656.98 82.89 657.35 79.04 657.29 75.23 C 655.46 75.24 653.64 75.25 651.83 75.27 C 652.03 79.51 651.29 83.87 652.47 88.01 C 653.65 91.50 657.77 92.47 661.05 92.23 C 664.36 92.38 668.34 90.32 668.51 86.67 C 668.78 82.85 668.56 79.01 668.64 75.18 C 666.91 75.21 665.18 75.23 663.46 75.24 M 691.67 80.97 C 693.13 85.39 699.37 83.72 701.79 86.96 C 701.07 90.33 696.20 89.08 695.53 86.22 C 693.83 86.36 692.14 86.53 690.47 86.74 C 691.94 92.60 699.37 93.45 704.02 91.05 C 706.49 89.80 707.50 86.39 706.06 84.03 C 703.59 80.65 698.62 81.82 695.72 79.04 C 697.56 77.30 700.28 77.59 701.45 79.88 C 703.09 79.84 704.74 79.76 706.40 79.67 C 705.58 77.27 703.76 75.07 701.02 74.99 C 697.13 74.07 690.49 75.74 691.67 80.97 M 672.61 75.20 C 672.68 80.81 672.60 86.43 672.67 92.04 C 674.39 91.93 676.10 91.85 677.84 91.78 C 677.80 89.64 677.78 87.50 677.74 85.36 C 678.26 85.30 679.29 85.19 679.81 85.13 C 681.24 87.36 682.57 89.65 683.92 91.93 C 685.84 91.91 687.75 91.93 689.69 91.98 C 688.63 89.21 687.00 86.73 685.05 84.52 C 688.29 83.10 689.84 78.60 686.80 76.14 C 682.31 74.45 677.31 75.56 672.61 75.20 Z" />
<path fill="#f9c42d" opacity="1.00" d=" M 673.08 45.77 C 677.96 39.50 682.90 33.29 687.71 26.97 C 687.98 33.26 687.83 39.56 687.84 45.86 C 682.92 45.85 678.00 45.90 673.08 45.77 Z" />
<path fill="#f9c42d" opacity="1.00" d=" M 677.68 78.47 C 679.32 78.43 680.97 78.40 682.63 78.39 C 682.70 79.52 682.76 80.66 682.81 81.80 C 681.12 81.81 679.45 81.80 677.78 81.77 C 677.74 80.67 677.70 79.57 677.68 78.47 Z" />
<path fill="#f9c42d" opacity="1.00" d=" M 640.97 88.38 C 635.62 89.92 633.92 81.22 638.05 78.94 C 639.52 78.06 641.11 79.07 642.56 79.48 C 643.84 82.30 644.38 86.89 640.97 88.38 Z" />
</g>
<g id="#dc251cff">
<path fill="#dc251c" opacity="1.00" d=" M 619.73 14.73 C 626.41 10.38 634.98 9.83 642.60 11.60 C 648.56 13.02 654.18 17.62 655.05 23.96 C 656.16 31.70 651.05 38.61 645.47 43.38 C 640.71 47.88 634.44 50.98 630.89 56.62 C 639.01 56.64 647.13 56.61 655.25 56.63 C 655.23 59.86 655.23 63.10 655.24 66.34 C 640.71 66.27 626.17 66.40 611.64 66.26 C 612.55 62.15 614.03 58.10 616.72 54.80 C 623.11 46.80 632.12 41.53 639.32 34.36 C 642.07 31.63 643.69 27.51 642.29 23.72 C 640.07 18.81 633.00 18.17 628.88 20.92 C 626.45 22.52 625.94 25.51 625.16 28.08 C 621.17 27.52 617.14 27.40 613.15 27.00 C 613.92 22.38 615.62 17.42 619.73 14.73 Z" />
<path fill="#dc251c" opacity="1.00" d=" M 689.20 10.82 C 692.74 10.63 696.30 10.62 699.85 10.79 C 699.70 22.46 699.64 34.14 699.87 45.80 C 702.52 45.81 705.17 45.86 707.82 45.98 C 707.77 49.06 707.78 52.15 707.85 55.23 C 705.14 55.21 702.44 55.25 699.75 55.36 C 699.72 59.00 699.73 62.63 699.85 66.27 C 695.84 66.37 691.84 66.33 687.84 66.29 C 687.85 62.60 687.85 58.92 687.84 55.24 C 679.08 55.21 670.31 55.26 661.55 55.22 C 661.77 51.94 660.88 48.38 662.05 45.29 C 670.92 33.67 680.40 22.50 689.20 10.82 M 673.08 45.77 C 678.00 45.90 682.92 45.85 687.84 45.86 C 687.83 39.56 687.98 33.26 687.71 26.97 C 682.90 33.29 677.96 39.50 673.08 45.77 Z" />
<path fill="#dc251c" opacity="1.00" d=" M 1.67 101.44 C 6.45 101.70 11.23 101.65 16.00 101.63 C 199.00 101.63 382.00 101.63 565.00 101.63 C 617.12 101.54 669.25 101.82 721.37 101.50 C 721.18 116.33 721.42 131.17 721.24 146.00 L 1.89 146.00 C 1.48 131.16 1.90 116.29 1.67 101.44 M 288.43 110.61 C 288.47 112.45 287.52 115.01 290.12 115.48 C 289.97 117.06 286.53 120.38 289.83 119.84 C 292.89 118.07 292.27 114.13 292.45 111.16 C 291.11 110.97 289.76 110.78 288.43 110.61 M 23.74 111.19 C 23.71 120.74 23.60 130.30 23.80 139.84 C 25.11 139.82 26.42 139.80 27.73 139.79 C 27.75 135.48 27.75 131.17 27.74 126.86 C 32.22 126.89 36.70 126.92 41.18 126.81 C 41.23 125.99 41.32 124.35 41.37 123.53 C 36.83 123.12 32.27 123.33 27.72 123.36 C 27.74 120.48 27.74 117.61 27.72 114.73 C 32.92 114.75 38.12 114.88 43.32 114.64 C 43.33 113.52 43.34 112.41 43.35 111.29 C 36.82 111.03 30.28 111.18 23.74 111.19 M 61.92 111.11 C 58.30 120.70 54.51 130.22 50.94 139.83 C 52.39 139.77 53.84 139.71 55.29 139.63 C 56.10 136.81 57.13 134.06 58.13 131.30 C 62.06 131.29 65.99 131.30 69.93 131.24 C 71.07 134.08 72.20 136.93 73.28 139.80 C 74.80 139.78 76.32 139.76 77.84 139.73 C 73.75 130.33 70.26 120.66 66.06 111.31 C 64.68 111.19 63.30 111.13 61.92 111.11 M 88.17 111.19 C 88.18 112.38 88.20 113.57 88.22 114.77 C 93.45 114.77 98.69 114.77 103.93 114.75 C 97.87 121.77 92.22 129.13 86.40 136.35 C 86.39 137.48 86.38 138.62 86.36 139.76 C 93.55 139.84 100.74 139.92 107.92 139.76 C 109.83 140.07 109.60 137.32 108.82 136.41 C 102.92 136.03 97.00 136.36 91.09 136.26 C 96.97 129.10 102.75 121.87 108.63 114.71 C 108.64 113.54 108.65 112.38 108.67 111.21 C 101.83 111.12 95.00 111.15 88.17 111.19 M 129.15 111.19 C 125.42 120.69 121.86 130.26 118.11 139.75 C 119.51 139.76 120.92 139.76 122.33 139.76 C 123.33 137.08 124.28 134.37 124.95 131.58 C 128.99 131.00 133.09 131.40 137.16 131.24 C 138.31 134.08 139.42 136.95 140.49 139.83 C 141.96 139.80 143.44 139.76 144.91 139.72 C 141.16 130.20 137.21 120.77 133.41 111.27 C 131.99 111.23 130.57 111.21 129.15 111.19 M 155.56 111.41 C 155.87 120.88 155.54 130.35 155.75 139.81 C 161.71 139.82 167.67 139.87 173.64 139.78 C 173.63 138.62 173.62 137.46 173.62 136.30 C 168.96 136.23 164.29 136.25 159.63 136.26 C 159.63 127.89 159.64 119.51 159.62 111.13 C 158.27 111.22 156.91 111.31 155.56 111.41 M 195.93 111.20 C 195.75 120.70 195.96 130.20 195.82 139.70 C 200.85 139.77 205.97 140.25 210.96 139.34 C 217.15 137.79 219.86 130.85 219.54 125.02 C 219.81 119.30 216.63 112.76 210.62 111.54 C 205.76 110.84 200.82 111.25 195.93 111.20 M 233.35 111.12 C 233.31 120.69 233.36 130.27 233.32 139.84 C 234.69 139.76 236.06 139.67 237.44 139.57 C 237.29 130.19 237.29 120.81 237.44 111.42 C 236.07 111.31 234.71 111.21 233.35 111.12 M 252.03 111.11 C 251.72 120.67 251.65 130.27 252.07 139.82 C 253.25 139.80 254.45 139.78 255.64 139.76 C 255.63 132.49 255.52 125.22 255.70 117.96 C 260.89 124.70 265.22 132.08 270.15 139.02 C 271.07 140.61 273.21 139.44 274.68 139.64 C 274.37 130.14 274.74 120.63 274.48 111.12 C 273.58 111.16 271.79 111.22 270.90 111.25 C 270.63 118.46 270.98 125.67 270.69 132.88 C 265.65 126.32 261.44 119.16 256.69 112.38 C 255.85 110.56 253.58 111.42 252.03 111.11 M 306.67 122.01 C 310.08 127.16 317.13 126.17 321.99 128.96 C 324.40 130.29 324.01 134.46 321.50 135.51 C 316.81 138.03 308.72 136.54 308.14 130.28 C 307.21 130.31 305.35 130.38 304.42 130.41 C 304.91 134.19 307.04 137.93 310.74 139.33 C 315.59 141.05 321.98 140.89 325.48 136.62 C 327.98 133.92 328.15 129.21 325.33 126.68 C 321.10 122.45 314.26 123.82 309.74 120.19 C 308.14 116.86 311.76 113.97 314.90 114.35 C 318.43 113.73 322.63 115.54 322.82 119.54 C 323.77 119.52 325.68 119.47 326.63 119.44 C 326.29 112.31 318.04 109.09 311.98 111.11 C 307.37 112.09 303.95 117.73 306.67 122.01 M 386.52 111.09 C 386.37 120.66 386.51 130.24 386.44 139.81 C 387.42 139.79 389.38 139.74 390.35 139.71 C 390.28 135.31 390.30 130.90 390.34 126.49 C 395.18 126.51 400.03 126.56 404.88 126.45 C 405.54 130.87 405.11 135.35 405.23 139.81 C 406.40 139.81 407.57 139.81 408.75 139.82 C 409.49 130.28 408.56 120.73 408.81 111.17 C 407.61 111.18 406.41 111.19 405.22 111.20 C 405.21 114.97 405.18 118.74 405.33 122.51 C 400.39 123.07 395.42 122.58 390.47 122.88 C 390.21 119.03 390.29 115.17 390.35 111.31 C 389.07 111.23 387.79 111.16 386.52 111.09 M 431.13 111.26 C 427.50 120.77 423.82 130.26 420.16 139.75 C 421.46 139.79 422.77 139.78 424.08 139.73 C 425.49 137.07 426.20 134.11 427.27 131.31 C 431.28 131.27 435.28 131.27 439.29 131.32 C 440.35 134.11 441.40 136.92 442.44 139.73 C 443.93 139.75 445.44 139.76 446.95 139.76 C 443.06 130.26 439.18 120.74 435.33 111.22 C 433.92 111.22 432.52 111.24 431.13 111.26 M 458.31 111.18 C 457.30 120.69 458.27 130.24 458.24 139.78 C 459.41 139.79 460.60 139.81 461.79 139.83 C 461.86 135.64 461.62 131.44 462.08 127.27 C 465.04 127.60 468.78 126.47 471.05 128.95 C 474.00 132.12 475.74 136.16 478.40 139.54 C 479.92 139.98 481.55 139.74 483.12 139.81 C 480.24 135.34 477.93 130.20 473.51 127.01 C 475.49 126.29 477.74 125.76 479.12 124.02 C 482.64 120.08 480.75 112.51 475.24 111.55 C 469.65 110.74 463.95 111.33 458.31 111.18 M 494.61 111.31 C 494.67 120.76 494.67 130.21 494.62 139.66 C 495.93 139.71 497.25 139.76 498.58 139.80 C 498.51 133.30 498.73 126.80 498.43 120.31 C 498.88 120.31 499.77 120.30 500.21 120.30 C 502.26 126.84 504.13 133.54 506.90 139.81 C 508.16 139.71 510.19 140.42 510.45 138.60 C 513.12 131.41 515.31 124.04 518.21 116.94 C 518.59 124.58 518.11 132.24 518.44 139.89 C 519.29 139.86 521.00 139.81 521.85 139.78 C 521.79 130.23 521.99 120.67 521.80 111.12 C 520.17 111.16 518.55 111.20 516.93 111.25 C 514.30 119.22 511.31 127.07 508.81 135.09 C 505.65 127.27 503.30 119.14 500.58 111.16 C 498.58 111.18 496.59 111.23 494.61 111.31 M 543.79 111.42 C 540.54 120.98 536.56 130.29 533.09 139.77 C 534.49 139.75 535.90 139.73 537.32 139.70 C 538.20 136.86 539.20 134.06 540.26 131.28 C 544.24 131.28 548.23 131.25 552.22 131.32 C 553.21 134.13 554.28 136.92 555.33 139.71 C 556.85 139.75 558.37 139.78 559.91 139.80 C 556.03 130.28 552.07 120.80 548.35 111.22 C 546.82 111.26 545.30 111.32 543.79 111.42 M 614.29 111.24 C 614.32 120.75 614.30 130.26 614.30 139.77 C 620.31 139.84 626.32 139.93 632.33 139.71 C 632.31 138.58 632.30 137.46 632.29 136.34 C 627.54 136.20 622.79 136.28 618.03 136.23 C 618.35 127.87 618.24 119.50 618.10 111.15 C 616.82 111.17 615.55 111.21 614.29 111.24 M 644.78 111.21 C 644.69 116.79 644.69 122.38 644.74 127.96 C 644.93 131.19 645.09 134.87 647.51 137.31 C 651.16 140.82 656.97 141.00 661.53 139.40 C 665.37 137.99 667.32 133.90 667.40 130.00 C 667.61 123.73 667.41 117.45 667.49 111.18 C 666.10 111.20 664.76 111.23 663.40 111.26 C 663.37 117.84 663.63 124.43 663.29 131.00 C 663.14 138.66 649.32 138.72 648.93 131.11 C 648.53 124.49 648.90 117.84 648.75 111.20 C 647.42 111.20 646.10 111.20 644.78 111.21 M 683.02 114.06 C 680.52 116.94 680.99 121.69 684.05 123.97 C 687.97 126.76 693.05 126.68 697.32 128.67 C 700.02 129.79 700.01 133.98 697.52 135.34 C 692.91 138.11 684.49 136.77 684.08 130.31 C 682.77 130.32 681.47 130.34 680.18 130.36 C 680.46 140.43 694.62 143.48 700.97 137.08 C 703.59 134.39 704.03 129.49 701.21 126.79 C 697.63 123.07 692.03 123.39 687.54 121.53 C 684.20 120.83 684.82 115.49 687.87 114.78 C 690.24 114.17 692.82 114.10 695.19 114.77 C 697.38 115.42 697.95 117.84 698.74 119.70 C 699.69 119.61 701.60 119.43 702.55 119.34 C 701.78 110.14 688.53 107.71 683.02 114.06 M 351.65 111.27 C 351.73 120.76 351.61 130.26 351.72 139.75 C 352.65 139.78 354.51 139.84 355.44 139.87 C 355.61 136.05 355.57 132.23 355.47 128.40 C 360.20 128.17 365.41 129.20 369.74 126.81 C 375.38 123.47 374.54 113.39 367.95 111.70 C 362.59 110.67 357.07 111.27 351.65 111.27 M 579.61 111.27 C 579.57 120.70 579.73 130.13 579.52 139.56 C 580.89 139.68 582.27 139.78 583.66 139.88 C 583.67 136.06 583.68 132.25 583.59 128.43 C 588.14 128.23 592.92 128.99 597.25 127.22 C 603.50 124.22 602.91 113.37 595.97 111.64 C 590.57 110.73 585.05 111.26 579.61 111.27 Z" />
<path fill="#dc251c" opacity="1.00" d=" M 199.66 114.74 C 204.25 115.10 210.11 113.41 213.45 117.56 C 216.28 121.72 216.02 127.56 214.26 132.09 C 211.68 137.74 204.59 136.03 199.64 136.24 C 199.69 129.07 199.66 121.91 199.66 114.74 Z" />
<path fill="#dc251c" opacity="1.00" d=" M 355.45 114.73 C 358.98 114.86 362.53 114.54 366.04 114.92 C 370.45 115.76 370.77 123.01 366.50 124.23 C 362.88 124.97 359.14 124.59 355.47 124.62 C 355.57 121.33 355.57 118.03 355.45 114.73 Z" />
<path fill="#dc251c" opacity="1.00" d=" M 461.75 114.62 C 465.81 114.71 469.95 114.19 473.98 114.93 C 478.14 115.91 477.62 123.12 473.33 123.45 C 469.49 123.97 465.61 123.69 461.76 123.63 C 461.83 120.63 461.82 117.63 461.75 114.62 Z" />
<path fill="#dc251c" opacity="1.00" d=" M 63.91 114.97 C 65.60 119.29 67.19 123.65 68.67 128.04 C 65.57 127.81 62.45 127.81 59.34 128.04 C 60.77 123.65 62.65 119.42 63.91 114.97 Z" />
<path fill="#dc251c" opacity="1.00" d=" M 126.37 127.78 C 128.32 123.63 129.59 119.22 131.33 114.98 C 132.66 119.35 134.38 123.57 135.95 127.86 C 132.75 127.89 129.56 127.89 126.37 127.78 Z" />
<path fill="#dc251c" opacity="1.00" d=" M 432.92 115.00 C 434.91 119.16 436.32 123.56 438.01 127.85 C 434.78 127.93 431.56 127.89 428.34 127.72 C 430.22 123.62 431.74 119.36 432.92 115.00 Z" />
<path fill="#dc251c" opacity="1.00" d=" M 545.88 114.96 C 547.79 119.18 549.22 123.60 550.89 127.91 C 547.69 127.93 544.48 127.89 541.29 127.72 C 543.18 123.60 544.66 119.32 545.88 114.96 Z" />
<path fill="#dc251c" opacity="1.00" d=" M 583.61 124.65 C 583.67 121.35 583.67 118.05 583.64 114.76 C 588.10 115.45 594.45 112.78 597.28 117.51 C 598.02 120.05 597.42 123.39 594.54 124.24 C 590.94 124.97 587.25 124.58 583.61 124.65 Z" />
</g>
</svg>
